<?xml version="1.0" encoding="UTF-8"?>
<svg xmlns="http://www.w3.org/2000/svg" version="1.1" xmlns:xlink="http://www.w3.org/1999/xlink" viewBox="0 0 811.9 843.9">
  <defs>
    <style>
      .cls-1 {
        stroke: url(#Degradado_sin_nombre_162-20);
      }

      .cls-1, .cls-2, .cls-3, .cls-4, .cls-5, .cls-6, .cls-7, .cls-8, .cls-9, .cls-10, .cls-11, .cls-12, .cls-13, .cls-14, .cls-15, .cls-16, .cls-17, .cls-18, .cls-19, .cls-20, .cls-21, .cls-22, .cls-23, .cls-24, .cls-25, .cls-26 {
        stroke-miterlimit: 10;
      }

      .cls-1, .cls-4, .cls-8, .cls-15, .cls-20, .cls-23 {
        fill: none;
      }

      .cls-1, .cls-4, .cls-8, .cls-23 {
        stroke-width: 20px;
      }

      .cls-2 {
        stroke: url(#Degradado_sin_nombre_162-21);
      }

      .cls-2, .cls-5, .cls-7, .cls-12, .cls-16, .cls-17, .cls-18, .cls-22, .cls-26 {
        stroke-width: 4px;
      }

      .cls-2, .cls-22 {
        fill: url(#Degradado_sin_nombre_171);
      }

      .cls-3 {
        fill: url(#Degradado_sin_nombre_162-17);
      }

      .cls-3, .cls-6, .cls-9, .cls-10, .cls-11, .cls-14, .cls-19, .cls-21, .cls-24, .cls-25 {
        stroke: #acd7c1;
      }

      .cls-4 {
        stroke: url(#Degradado_sin_nombre_162-19);
      }

      .cls-5 {
        fill: url(#Degradado_sin_nombre_249);
        mix-blend-mode: exclusion;
        opacity: .7;
        stroke: #29676e;
      }

      .cls-5, .cls-27, .cls-28 {
        isolation: isolate;
      }

      .cls-27 {
        fill: url(#Degradado_sin_nombre_223);
        mix-blend-mode: screen;
        opacity: .5;
      }

      .cls-6 {
        fill: url(#Degradado_sin_nombre_162-18);
      }

      .cls-29 {
        opacity: .7;
      }

      .cls-7 {
        fill: url(#Degradado_sin_nombre_170);
        stroke: url(#Degradado_sin_nombre_162-10);
      }

      .cls-8 {
        stroke: url(#Degradado_sin_nombre_162-7);
      }

      .cls-9 {
        fill: url(#Degradado_sin_nombre_162-3);
      }

      .cls-10 {
        fill: url(#Degradado_sin_nombre_162-4);
      }

      .cls-11 {
        fill: url(#Degradado_sin_nombre_162-5);
      }

      .cls-12 {
        stroke: url(#Degradado_sin_nombre_162-11);
      }

      .cls-12, .cls-26 {
        fill: url(#Degradado_sin_nombre_169);
      }

      .cls-13 {
        fill: #0e2d2f;
        stroke: #132517;
      }

      .cls-14 {
        fill: url(#Degradado_sin_nombre_162-15);
      }

      .cls-15 {
        stroke: url(#Degradado_sin_nombre_162);
      }

      .cls-15, .cls-20 {
        stroke-width: 26px;
      }

      .cls-16 {
        fill: url(#Degradado_sin_nombre_170-2);
        stroke: url(#Degradado_sin_nombre_162-22);
      }

      .cls-17 {
        fill: url(#Degradado_sin_nombre_171-3);
        stroke: url(#Degradado_sin_nombre_162-24);
      }

      .cls-18 {
        fill: url(#Degradado_sin_nombre_171-2);
        stroke: url(#Degradado_sin_nombre_162-12);
      }

      .cls-30 {
        fill: url(#Degradado_sin_nombre_222);
      }

      .cls-19 {
        fill: url(#Degradado_sin_nombre_162-14);
      }

      .cls-20 {
        stroke: url(#Degradado_sin_nombre_162-13);
      }

      .cls-21 {
        fill: url(#Degradado_sin_nombre_162-16);
      }

      .cls-22 {
        stroke: url(#Degradado_sin_nombre_162-9);
      }

      .cls-23 {
        stroke: url(#Degradado_sin_nombre_162-8);
      }

      .cls-24 {
        fill: url(#Degradado_sin_nombre_162-2);
      }

      .cls-25 {
        fill: url(#Degradado_sin_nombre_162-6);
      }

      .cls-26 {
        stroke: url(#Degradado_sin_nombre_162-23);
      }
    </style>
    <radialGradient id="Degradado_sin_nombre_249" data-name="Degradado sin nombre 249" cx="553.4" cy="315" fx="553.4" fy="663.5" r="358" gradientTransform="translate(971.6 196.9) rotate(179.9) scale(.9 -.9)" gradientUnits="userSpaceOnUse">
      <stop offset="0" stop-color="#d6ffd6" stop-opacity=".4"/>
      <stop offset=".2" stop-color="#d1ffd1" stop-opacity=".4"/>
      <stop offset=".4" stop-color="#c5ffc5" stop-opacity=".3"/>
      <stop offset=".7" stop-color="#b2ffb2" stop-opacity=".1"/>
      <stop offset=".8" stop-color="#adffad" stop-opacity="0"/>
    </radialGradient>
    <radialGradient id="Degradado_sin_nombre_223" data-name="Degradado sin nombre 223" cx="199.9" cy="704.2" fx="199.9" fy="704.2" r="194.9" gradientTransform="translate(4.5 756.5) scale(.9 -.8)" gradientUnits="userSpaceOnUse">
      <stop offset="0" stop-color="#f2d129"/>
      <stop offset=".7" stop-color="#f2d461" stop-opacity="0"/>
    </radialGradient>
    <linearGradient id="Degradado_sin_nombre_162" data-name="Degradado sin nombre 162" x1="152.4" y1="161" x2="810.5" y2="819.1" gradientUnits="userSpaceOnUse">
      <stop offset="0" stop-color="#d6ffd6"/>
      <stop offset=".8" stop-color="#acd7c1" stop-opacity=".9"/>
    </linearGradient>
    <linearGradient id="Degradado_sin_nombre_162-2" data-name="Degradado sin nombre 162" x1="178.5" y1="565.8" x2="431.7" y2="565.8" xlink:href="#Degradado_sin_nombre_162"/>
    <linearGradient id="Degradado_sin_nombre_162-3" data-name="Degradado sin nombre 162" x1="740.6" y1="659.5" x2="745.4" y2="659.5" xlink:href="#Degradado_sin_nombre_162"/>
    <linearGradient id="Degradado_sin_nombre_162-4" data-name="Degradado sin nombre 162" x1="616.6" y1="672.3" x2="740.6" y2="672.3" xlink:href="#Degradado_sin_nombre_162"/>
    <linearGradient id="Degradado_sin_nombre_162-5" data-name="Degradado sin nombre 162" x1="443" y1="469.9" x2="783.9" y2="469.9" xlink:href="#Degradado_sin_nombre_162"/>
    <linearGradient id="Degradado_sin_nombre_162-6" data-name="Degradado sin nombre 162" x1="164.6" y1="751.5" x2="797" y2="751.5" xlink:href="#Degradado_sin_nombre_162"/>
    <linearGradient id="Degradado_sin_nombre_162-7" data-name="Degradado sin nombre 162" x1="53.6" y1="49.9" x2="303.4" y2="299.7" xlink:href="#Degradado_sin_nombre_162"/>
    <linearGradient id="Degradado_sin_nombre_162-8" data-name="Degradado sin nombre 162" x1="178.5" y1="333.5" x2="178.5" y2="333.5" xlink:href="#Degradado_sin_nombre_162"/>
    <linearGradient id="Degradado_sin_nombre_171" data-name="Degradado sin nombre 171" x1="179" y1="91.9" x2="284.3" y2="91.9" gradientUnits="userSpaceOnUse">
      <stop offset="0" stop-color="#d6ffd6"/>
      <stop offset="1" stop-color="#acd7c1" stop-opacity=".9"/>
    </linearGradient>
    <linearGradient id="Degradado_sin_nombre_162-9" data-name="Degradado sin nombre 162" x1="196.1" y1="70.4" x2="255" y2="129.3" xlink:href="#Degradado_sin_nombre_162"/>
    <linearGradient id="Degradado_sin_nombre_170" data-name="Degradado sin nombre 170" x1="51.7" y1="230.2" x2="128.5" y2="230.2" gradientUnits="userSpaceOnUse">
      <stop offset="0" stop-color="#acd7c1" stop-opacity=".9"/>
      <stop offset=".7" stop-color="#d6ffd6"/>
    </linearGradient>
    <linearGradient id="Degradado_sin_nombre_162-10" data-name="Degradado sin nombre 162" x1="69.1" y1="187.1" x2="146.6" y2="264.6" xlink:href="#Degradado_sin_nombre_162"/>
    <linearGradient id="Degradado_sin_nombre_169" data-name="Degradado sin nombre 169" x1="62.9" y1="89.8" x2="152.5" y2="89.8" gradientUnits="userSpaceOnUse">
      <stop offset="0" stop-color="#acd7c1" stop-opacity=".9"/>
      <stop offset=".6" stop-color="#d6ffd6"/>
    </linearGradient>
    <linearGradient id="Degradado_sin_nombre_162-11" data-name="Degradado sin nombre 162" x1="91.7" y1="70.7" x2="148.9" y2="127.9" xlink:href="#Degradado_sin_nombre_162"/>
    <linearGradient id="Degradado_sin_nombre_222" data-name="Degradado sin nombre 222" x1="169.9" y1="259.5" x2="794" y2="259.5" gradientUnits="userSpaceOnUse">
      <stop offset=".4" stop-color="#acd7c1" stop-opacity=".9"/>
      <stop offset=".9" stop-color="#d6ffd6"/>
    </linearGradient>
    <linearGradient id="Degradado_sin_nombre_171-2" data-name="Degradado sin nombre 171" x1="197.3" y1="238.2" x2="297.3" y2="238.2" xlink:href="#Degradado_sin_nombre_171"/>
    <linearGradient id="Degradado_sin_nombre_162-12" data-name="Degradado sin nombre 162" x1="195.3" y1="238.2" x2="299.3" y2="238.2" xlink:href="#Degradado_sin_nombre_162"/>
    <linearGradient id="Degradado_sin_nombre_162-13" data-name="Degradado sin nombre 162" y1="161" x2="810.5" y2="819.1" xlink:href="#Degradado_sin_nombre_162"/>
    <linearGradient id="Degradado_sin_nombre_162-14" data-name="Degradado sin nombre 162" x1="178.5" y1="565.8" x2="431.7" y2="565.8" xlink:href="#Degradado_sin_nombre_162"/>
    <linearGradient id="Degradado_sin_nombre_162-15" data-name="Degradado sin nombre 162" x1="740.6" y1="659.5" x2="745.4" y2="659.5" xlink:href="#Degradado_sin_nombre_162"/>
    <linearGradient id="Degradado_sin_nombre_162-16" data-name="Degradado sin nombre 162" x1="616.6" y1="672.3" x2="740.6" y2="672.3" xlink:href="#Degradado_sin_nombre_162"/>
    <linearGradient id="Degradado_sin_nombre_162-17" data-name="Degradado sin nombre 162" x1="443" y1="469.9" x2="783.9" y2="469.9" xlink:href="#Degradado_sin_nombre_162"/>
    <linearGradient id="Degradado_sin_nombre_162-18" data-name="Degradado sin nombre 162" x1="164.6" y1="751.5" x2="797" y2="751.5" xlink:href="#Degradado_sin_nombre_162"/>
    <linearGradient id="Degradado_sin_nombre_162-19" data-name="Degradado sin nombre 162" x1="53.6" y1="49.9" x2="303.4" y2="299.7" xlink:href="#Degradado_sin_nombre_162"/>
    <linearGradient id="Degradado_sin_nombre_162-20" data-name="Degradado sin nombre 162" x1="178.5" y1="333.5" x2="178.5" y2="333.5" xlink:href="#Degradado_sin_nombre_162"/>
    <linearGradient id="Degradado_sin_nombre_162-21" data-name="Degradado sin nombre 162" x1="196.1" y1="70.4" x2="255" y2="129.3" xlink:href="#Degradado_sin_nombre_162"/>
    <linearGradient id="Degradado_sin_nombre_170-2" data-name="Degradado sin nombre 170" x2="128.5" xlink:href="#Degradado_sin_nombre_170"/>
    <linearGradient id="Degradado_sin_nombre_162-22" data-name="Degradado sin nombre 162" x1="69.1" y1="187.1" x2="146.6" y2="264.6" xlink:href="#Degradado_sin_nombre_162"/>
    <linearGradient id="Degradado_sin_nombre_162-23" data-name="Degradado sin nombre 162" x1="91.7" y1="70.7" x2="148.9" y2="127.9" xlink:href="#Degradado_sin_nombre_162"/>
    <linearGradient id="Degradado_sin_nombre_171-3" data-name="Degradado sin nombre 171" x1="197.3" y1="238.2" x2="297.3" y2="238.2" xlink:href="#Degradado_sin_nombre_171"/>
    <linearGradient id="Degradado_sin_nombre_162-24" data-name="Degradado sin nombre 162" x1="195.3" y1="238.2" x2="299.3" y2="238.2" xlink:href="#Degradado_sin_nombre_162"/>
  </defs>
  <!-- Generator: Adobe Illustrator 28.7.1, SVG Export Plug-In . SVG Version: 1.2.0 Build 142)  -->
  <g class="cls-28">
    <g id="Capa_1">
      <g id="Capa_14">
        <rect class="cls-13" x="-70.2" y="-49.1" width="1000" height="1000"/>
      </g>
      <g id="Capa_15">
        <polygon class="cls-5" points="169.9 162.3 794 161.2 783.9 819.2 169.9 819.2 169.9 162.3"/>
      </g>
      <g id="Capa_16" class="cls-29">
        <rect class="cls-27" x="11.4" y="3.3" width="335.5" height="330.3"/>
      </g>
      <g>
        <g id="Capa_3">
          <path class="cls-15" d="M346.9,158.8c-55.8.2-111.6.4-167.5.7-9.7,0-17.6,7.9-17.3,17.4,1.4,52.3,1.6,106.9,1.3,162.7M163.5,339.6c-.8,154.7-5.5,317.9-.9,462.3.6,17.8,6.6,23.3,24.8,24.5,44,2.9,155.2,0,273.6,0s249.8,4.5,299,4.6c34.8,0,34.5-16.5,35.1-35.4,5.6-200.2-1.3-425.2,3.8-626.4.2-6.7-5.3-12.2-12.1-12.1-146.6.6-293.2,1.2-439.8,1.8"/>
        </g>
        <g id="Capa_8">
          <g>
            <path class="cls-24" d="M431.7,502c-101.4,66.6-184.8,21.2-253.3-55.9,59.8,67.4,91.6,166.2,7.9,233.7,46.8-37.7,102.9-26.6,154.4,5.5,14.6-4,29.9-7.4,46.1-10.3-19.4-65.2-13.9-134.5,44.8-173.1h0Z"/>
            <path class="cls-9" d="M740.6,660.8c1.6-.8,3.2-1.7,4.8-2.6-1.6.9-3.2,1.7-4.8,2.6Z"/>
            <path class="cls-10" d="M740.6,660.8c-49.2,25.8-93.8,13.1-124-29,4.9,19.7,5.3,37.4,2.4,53.1,26.8,7.6,50.9,17.1,72.1,27.7,7-20.1,23.8-37.3,49.5-51.8h0Z"/>
            <path class="cls-11" d="M783.9,474.4c-127-58.7-101-116.9-92.8-203.7-11.4-.3-22.5,0-33.3.9-64.9,65.6-107,103.4-213.1,63.3-.6.2-1.1.4-1.7.6,110.5,62.6,108.8,145.8,66.8,331.9,8.7.4,17.3,1,25.6,1.8,81.1-165,124.1-227.7,248.5-194.9h0Z"/>
            <path class="cls-25" d="M691.1,712.7c-7.1,20.4-4.3,43.8,9.3,70.4-40.6-51-87.5-51.3-133.4-26-1.3.8-2.6,1.5-3.9,2.2,1.3-.8,2.6-1.5,3.9-2.2,24.3-14.3,45.8-38.5,52-72.1-25.5-7.2-53.4-12.7-83.6-15.7-4.2,8.7-19.7,40.4-23.9,49.1-8.4,17.3-26.8,55.1-35.2,72.3,7.7-22.7,15.1-47,21.8-73,4.5-17.3,8.3-34.1,11.7-50.3-8-.4-16-.6-24.3-.6-35.6,0-68.5,3-98.7,8.3,11.2,37.6,30.7,73.9,53.1,102.1-27.3-34.6-62.1-68.7-99.2-91.8-160.6,43.9-219.1,150.8-143.2,150.8h571.9c57.4,0,22.2-73.4-78.4-123.5h0Z"/>
          </g>
        </g>
        <g id="Capa_7">
          <ellipse class="cls-8" cx="178.5" cy="174.8" rx="168.5" ry="164.8"/>
          <path class="cls-23" d="M178.5,333.5"/>
          <path class="cls-22" d="M188.4,121.4c4.7-5.5,7.3-11.9,13-35.5,4.8-19.6,3.3-20.3,6.1-23.9,9-11.8,29.9-12,44.3-6.5,19.8,7.6,36.5,29.6,31.7,41.8-.9,2.4-2.8,3.7-20.7,11.2-14,5.9-21,8.9-25.8,10.5-23.3,8-56.6,15.9-58,11.5-.5-1.6,4-2.8,9.4-9.2h0Z"/>
          <path class="cls-7" d="M125.4,181.2c-16.6,18.7-20.3,70.8,3.1,97.9,0,0-4.6,5.3-4.7,5.5-4.4,5.1-43.3-12.4-62.1-39.3-4-5.8-12.4-17.8-9.4-31.6,7.8-36.4,86.4-47.4,73.1-32.5h0Z"/>
          <path class="cls-12" d="M140.3,123.6c-22.2-8-42.4,10.2-64.3,7.9-12.8-1.3-14.2-7.6-12.5-16.7,3.8-19.5,17.6-31.4,27.1-39.3,26.9-22.5,60.7-29.9,61.9-27.1.2.5-.5,1.2-.8,1.6-32.1,37.3,19,84.4-11.3,73.6Z"/>
          <path class="cls-30" d="M794,161.2l-447.1,1.1s0,13.5,0,21c0,12.8-4,26-6.8,38,1.2,27.9-67.5,99.4-72.1,95.7-26.9,17.8-54.6,31.2-89.5,31.2s-5.7,0-8.5-.2c0,2.6,0-2.7,0,0,43.5,8.8,106.8,9.7,127.3,9.8,75.7-3.9,89.9-5.5,145.8-21.8-3-1.7-10.3-4.4-13.5-6,3.3,1.3,11.3,3.9,15.1,5.5,74.3-25.1,137.9-57.3,213.1-63.3,19.7-27.2,39.1-62.9,57.4-109.2,0,0-18,48.1-24.1,108.3,12.7.4,25.7,1.5,39.3,3.6,30.5,4.7,42.6,14.1,53.5,18.1l10.1-131.6h0Z"/>
        </g>
        <g id="Capa_10">
          <path class="cls-18" d="M264.2,209.8c20.4-2.3,24.4-5.4,31,5.8,8.2,14-9.5,42.7-23.6,53.4-17.1,13-30.1,12.4-39.9,5.2-32.5-23.8-36.7-74-33.6-77.2.2-.2,2.1,20.1,66.1,12.7h0Z"/>
        </g>
      </g>
      <g id="Capa_3-2" data-name="Capa_3">
        <path class="cls-20" d="M346.9,158.8c-55.8.2-111.6.4-167.5.7-9.7,0-17.6,7.9-17.3,17.4,1.4,52.3,1.6,106.9,1.3,162.7M163.5,339.6c-.8,154.7-5.5,317.9-.9,462.3.6,17.8,6.6,23.3,24.8,24.5,44,2.9,155.2,0,273.6,0s249.8,4.5,299,4.6c34.8,0,34.5-16.5,35.1-35.4,5.6-200.2-1.3-425.2,3.8-626.4.2-6.7-5.3-12.2-12.1-12.1-146.6.6-293.2,1.2-439.8,1.8"/>
      </g>
      <g id="Capa_8-2" data-name="Capa_8">
        <g>
          <path class="cls-19" d="M431.7,502c-101.4,66.6-184.8,21.2-253.3-55.9,59.8,67.4,91.6,166.2,7.9,233.7,46.8-37.7,102.9-26.6,154.4,5.5,14.6-4,29.9-7.4,46.1-10.3-19.4-65.2-13.9-134.5,44.8-173.1h0Z"/>
          <path class="cls-14" d="M740.6,660.8c1.6-.8,3.2-1.7,4.8-2.6-1.6.9-3.2,1.7-4.8,2.6Z"/>
          <path class="cls-21" d="M740.6,660.8c-49.2,25.8-93.8,13.1-124-29,4.9,19.7,5.3,37.4,2.4,53.1,26.8,7.6,50.9,17.1,72.1,27.7,7-20.1,23.8-37.3,49.5-51.8h0Z"/>
          <path class="cls-3" d="M783.9,474.4c-127-58.7-101-116.9-92.8-203.7-11.4-.3-22.5,0-33.3.9-64.9,65.6-107,103.4-213.1,63.3-.6.2-1.1.4-1.7.6,110.5,62.6,108.8,145.8,66.8,331.9,8.7.4,17.3,1,25.6,1.8,81.1-165,124.1-227.7,248.5-194.9h0Z"/>
          <path class="cls-6" d="M691.1,712.7c-7.1,20.4-4.3,43.8,9.3,70.4-40.6-51-87.5-51.3-133.4-26-1.3.8-2.6,1.5-3.9,2.2,1.3-.8,2.6-1.5,3.9-2.2,24.3-14.3,45.8-38.5,52-72.1-25.5-7.2-53.4-12.7-83.6-15.7-4.2,8.7-19.7,40.4-23.9,49.1-8.4,17.3-26.8,55.1-35.2,72.3,7.7-22.7,15.1-47,21.8-73,4.5-17.3,8.3-34.1,11.7-50.3-8-.4-16-.6-24.3-.6-35.6,0-68.5,3-98.7,8.3,11.2,37.6,30.7,73.9,53.1,102.1-27.3-34.6-62.1-68.7-99.2-91.8-160.6,43.9-219.1,150.8-143.2,150.8h571.9c57.4,0,22.2-73.4-78.4-123.5h0Z"/>
        </g>
      </g>
      <g id="Capa_7-2" data-name="Capa_7">
        <ellipse class="cls-4" cx="178.5" cy="174.8" rx="168.5" ry="164.8"/>
        <path class="cls-1" d="M178.5,333.5"/>
        <path class="cls-2" d="M188.4,121.4c4.7-5.5,7.3-11.9,13-35.5,4.8-19.6,3.3-20.3,6.1-23.9,9-11.8,29.9-12,44.3-6.5,19.8,7.6,36.5,29.6,31.7,41.8-.9,2.4-2.8,3.7-20.7,11.2-14,5.9-21,8.9-25.8,10.5-23.3,8-56.6,15.9-58,11.5-.5-1.6,4-2.8,9.4-9.2h0Z"/>
        <path class="cls-16" d="M125.4,181.2c-16.6,18.7-20.3,70.8,3.1,97.9,0,0-4.6,5.3-4.7,5.5-4.4,5.1-43.3-12.4-62.1-39.3-4-5.8-12.4-17.8-9.4-31.6,7.8-36.4,86.4-47.4,73.1-32.5h0Z"/>
        <path class="cls-26" d="M140.3,123.6c-22.2-8-42.4,10.2-64.3,7.9-12.8-1.3-14.2-7.6-12.5-16.7,3.8-19.5,17.6-31.4,27.1-39.3,26.9-22.5,60.7-29.9,61.9-27.1.2.5-.5,1.2-.8,1.6-32.1,37.3,19,84.4-11.3,73.6Z"/>
        <path class="cls-30" d="M794,161.2l-447.1,1.1s0,13.5,0,21c0,12.8-4,26-6.8,38,1.2,27.9-67.5,99.4-72.1,95.7-26.9,17.8-54.6,31.2-89.5,31.2s-5.7,0-8.5-.2c0,2.6,0-2.7,0,0,43.5,8.8,106.8,9.7,127.3,9.8,75.7-3.9,89.9-5.5,145.8-21.8-3-1.7-10.3-4.4-13.5-6,3.3,1.3,11.3,3.9,15.1,5.5,74.3-25.1,137.9-57.3,213.1-63.3,19.7-27.2,39.1-62.9,57.4-109.2,0,0-18,48.1-24.1,108.3,12.7.4,25.7,1.5,39.3,3.6,30.5,4.7,42.6,14.1,53.5,18.1l10.1-131.6h0Z"/>
      </g>
      <g id="Capa_10-2" data-name="Capa_10">
        <path class="cls-17" d="M264.2,209.8c20.4-2.3,24.4-5.4,31,5.8,8.2,14-9.5,42.7-23.6,53.4-17.1,13-30.1,12.4-39.9,5.2-32.5-23.8-36.7-74-33.6-77.2.2-.2,2.1,20.1,66.1,12.7h0Z"/>
      </g>
    </g>
  </g>
</svg>